<?xml version="1.0" encoding="UTF-8"?>
<svg xmlns="http://www.w3.org/2000/svg" viewBox="0 0 24 24" width="24" height="24">
  <defs>
    <linearGradient id="gradient" x1="0%" y1="0%" x2="100%" y2="100%">
      <stop offset="0%" stop-color="rgba(255, 255, 255, 0.7)" />
      <stop offset="100%" stop-color="rgba(255, 255, 255, 0.3)" />
    </linearGradient>
    <filter id="blur" x="-50%" y="-50%" width="200%" height="200%">
      <feGaussianBlur in="SourceGraphic" stdDeviation="1" />
    </filter>
  </defs>
  <circle cx="12" cy="12" r="10" fill="url(#gradient)" filter="url(#blur)" />
  <path d="M12 2C6.48 2 2 6.48 2 12C2 17.52 6.48 22 12 22C17.52 22 22 17.52 22 12C22 6.48 17.52 2 12 2ZM11 19.93C7.05 19.44 4 16.08 4 12C4 11.38 4.08 10.79 4.21 10.21L9 15V16C9 17.1 9.9 18 11 18V19.93ZM17.9 17.39C17.64 16.58 16.9 16 16 16H15V13C15 12.45 14.55 12 14 12H8V10H10C10.55 10 11 9.55 11 9V7H13C14.1 7 15 6.1 15 5V4.59C17.93 5.78 20 8.65 20 12C20 14.08 19.2 15.97 17.9 17.39Z" fill="currentColor" />
</svg>