<?xml version="1.0" encoding="UTF-8"?>
<svg xmlns="http://www.w3.org/2000/svg" viewBox="0 0 24 24" width="24" height="24">
  <defs>
    <linearGradient id="gradient" x1="0%" y1="0%" x2="100%" y2="100%">
      <stop offset="0%" stop-color="rgba(255, 255, 255, 0.7)" />
      <stop offset="100%" stop-color="rgba(255, 255, 255, 0.3)" />
    </linearGradient>
    <filter id="blur" x="-50%" y="-50%" width="200%" height="200%">
      <feGaussianBlur in="SourceGraphic" stdDeviation="1" />
    </filter>
  </defs>
  <circle cx="12" cy="12" r="10" fill="url(#gradient)" filter="url(#blur)" />
  <path d="M10 7C8.9 7 8 7.9 8 9V15C8 16.1 8.9 17 10 17H14C15.1 17 16 16.1 16 15V11C16 9.9 15.1 9 14 9H12V7H10ZM10 9H12V11H14V15H10V9Z" fill="currentColor" />
  <path d="M18 12C18 14.2 16.8 16.2 15 17.2V19C17.7 17.9 19.5 15.1 19.5 12C19.5 8.9 17.7 6.1 15 5V6.8C16.8 7.8 18 9.8 18 12Z" fill="currentColor" />
  <path d="M6 12C6 9.8 7.2 7.8 9 6.8V5C6.3 6.1 4.5 8.9 4.5 12C4.5 15.1 6.3 17.9 9 19V17.2C7.2 16.2 6 14.2 6 12Z" fill="currentColor" />
</svg>