<?xml version="1.0" encoding="UTF-8"?>
<svg xmlns="http://www.w3.org/2000/svg" viewBox="0 0 24 24" width="24" height="24">
  <defs>
    <linearGradient id="gradient" x1="0%" y1="0%" x2="100%" y2="100%">
      <stop offset="0%" stop-color="rgba(255, 255, 255, 0.7)" />
      <stop offset="100%" stop-color="rgba(255, 255, 255, 0.3)" />
    </linearGradient>
    <filter id="blur" x="-50%" y="-50%" width="200%" height="200%">
      <feGaussianBlur in="SourceGraphic" stdDeviation="1" />
    </filter>
  </defs>
  <circle cx="12" cy="12" r="10" fill="url(#gradient)" filter="url(#blur)" />
  <path d="M12 17C14.7614 17 17 14.7614 17 12C17 9.23858 14.7614 7 12 7C9.23858 7 7 9.23858 7 12C7 14.7614 9.23858 17 12 17Z" fill="currentColor" />
  <path d="M12 5V3M12 21V19M5 12H3M21 12H19M18.364 18.364L16.95 16.95M18.364 5.636L16.95 7.05M5.636 18.364L7.05 16.95M5.636 5.636L7.05 7.05" stroke="currentColor" strokeWidth="2" strokeLinecap="round" strokeLinejoin="round" />
</svg>